<svg height="480pt" viewBox="0 0 480 480" width="480pt" xmlns="http://www.w3.org/2000/svg"><path d="m8 56h240v416h-240zm0 0" fill="#5fbac5"/><g fill="#ffac00"><path d="m240 56h-104v-24l104-24zm0 0"/><path d="m24 56h96v-24l-104-24v48zm0 0"/><path d="m144 56h-32v-16c0-8.835938 7.164062-16 16-16s16 7.164062 16 16zm0 0"/><path d="m120 56h16v416h-16zm0 0"/></g><path d="m360 176c0 17.671875-14.328125 32-32 32s-32-14.328125-32-32 14.328125-32 32-32 32 14.328125 32 32zm0 0" fill="#ddb66a"/><path d="m424 216c0-42.664062-14.015625-88-40-88s-40 45.335938-40 88zm0 0" fill="#fce666"/><path d="m312 216c0-42.664062-14.015625-88-40-88s-40 45.335938-40 88zm0 0" fill="#fce666"/><path d="m184 200h288v80h-288zm0 0" fill="#c1272d"/><path d="m192 280h272v192h-272zm0 0" fill="#ef4037"/><path d="m296 280h64v192h-64zm0 0" fill="#fce666"/><path d="m472 192h-49.425781c-4-32.945312-17.015625-64-38.574219-64-13.449219 0-23.542969 12.121094-30.230469 29.199219-5.96875-8.285157-15.558593-13.199219-25.769531-13.199219s-19.800781 4.914062-25.769531 13.199219c-6.6875-17.078125-16.78125-29.199219-30.230469-29.199219-5.980469.109375-11.695312 2.476562-16 6.632812v-78.632812c0-4.417969-3.582031-8-8-8v-40c0-2.464844-1.136719-4.789062-3.078125-6.308594-1.941406-1.515625-4.476563-2.050781-6.867187-1.453125l-92.796876 23.203125c-4.5-4.746094-10.75-7.433594-17.289062-7.433594s-12.789062 2.6875-17.289062 7.433594l-92.800782-23.203125c-2.378906-.574219-4.894531-.027343-6.820312 1.484375-1.925782 1.515625-3.054688 3.828125-3.058594 6.277344v40c-4.417969 0-8 3.582031-8 8v416c0 4.417969 3.582031 8 8 8h456c4.417969 0 8-3.582031 8-8v-184c4.417969 0 8-3.582031 8-8v-80c0-4.417969-3.582031-8-8-8zm-88-48c7.199219 0 18.398438 16.625 22.480469 48h-44.960938c4.082031-31.375 15.28125-48 22.480469-48zm-56 16c8.835938 0 16 7.164062 16 16s-7.164062 16-16 16-16-7.164062-16-16 7.164062-16 16-16zm-56-16c7.199219 0 18.398438 16.625 22.480469 48h-44.960938c4.082031-31.375 15.28125-48 22.480469-48zm-120-104v-1.753906l80-20v29.753906h-80zm-128-21.753906 80 20v9.753906h-80zm96 445.753906h-104v-400h104zm0-424c0-4.417969 3.582031-8 8-8s8 3.582031 8 8v8h-16zm64 152c-4.417969 0-8 3.582031-8 8v80c0 4.417969 3.582031 8 8 8v176h-48v-400h104v96c.050781.417969.132812.832031.246094 1.238281-3.328125 9.992188-5.617188 20.300781-6.820313 30.761719zm104 272h-88v-176h88zm64 0h-48v-176h48zm104 0h-88v-176h88zm8-192h-272v-64h272zm0 0"/></svg>