<svg height="448pt" viewBox="0 0 448 448" width="448pt" xmlns="http://www.w3.org/2000/svg">

	<path d="m288 272h48v176h-48zm0 0"/><path d="m352 272h88v176h-88zm0 0"/>
	<path d="m336.640625 192h-160.640625v64h272v-64zm0 0"/><path d="m216 0-80 22.246094v9.753906h80zm0 0"/>
	<path d="m368 128c-7.199219 0-18.398438 16.625-22.480469 48h44.960938c-4.082031-31.375-15.28125-48-22.480469-48zm0 0"/>
	<path d="m88 24v-1.753906l-80-22.246094v32h80zm0 0"/><path d="m184 272h88v176h-88zm0 0"/>
	<path d="m168 176h49.425781c1.203125-10.460938 3.492188-20.769531 6.820313-30.761719-.113282-.40625-.195313-.820312-.246094-1.238281v-96h-104v400h48v-176c-4.417969 0-8-3.582031-8-8v-80c0-4.417969 3.582031-8 8-8zm0 0"/>
	<path d="m104 48h-104v400h104zm0 0"/><path d="m120 24c0-4.417969-3.582031-8-8-8s-8 3.582031-8 8v8h16zm0 0"/><path d="m328 160c0 8.835938-7.164062 16-16 16s-16-7.164062-16-16 7.164062-16 16-16 16 7.164062 16 16zm0 0"/>
	<path d="m256 128c-7.199219 0-18.398438 16.625-22.480469 48h44.960938c-4.082031-31.375-15.28125-48-22.480469-48zm0 0"/>
	
	</svg>