<?xml version="1.0" encoding="utf-8"?>
<!-- Generator: Adobe Illustrator 17.1.0, SVG Export Plug-In . SVG Version: 6.00 Build 0)  -->
<!DOCTYPE svg PUBLIC "-//W3C//DTD SVG 1.1//EN" "http://www.w3.org/Graphics/SVG/1.1/DTD/svg11.dtd">
<svg version="1.1" id="Слой_1" xmlns="http://www.w3.org/2000/svg" xmlns:xlink="http://www.w3.org/1999/xlink" x="0px" y="0px"
	 viewBox="0 0 456 449.2" enable-background="new 0 0 456 449.2" xml:space="preserve">
<g>
	<path d="M327.6,277.8c-0.8-5.1-1.4-10.5-1.8-16.3c-7.3,1.2-13.2,0.7-17.6-0.8c0.1-1.3,0.1-1.9,0.2-3.2c4.1,1.3,9.9,1.7,17.6,0.6
		c0-4.3-0.2-8.8-0.5-13.5c-7.7,0.9-13.4,0.5-17-0.8c0-1,0-1.4-0.1-2.4c4.6,0.8,10.5,0.7,17.7-0.7c0.3-5.3,0.7-10.2,1.2-14.7
		c-12.1,1.7-23.1,0.4-32.8-2.5c1,10.4,1.5,20.4,1.6,30.2c1.1,0.8,2.1,1.6,3,2.7c2.9,3.2,4.8,7.8,5.5,13.3c0.2,1.7,0.1,3.8-0.2,6.2
		C311.9,278.7,319.7,279.4,327.6,277.8z"/>
	<path d="M372,226.1c-0.2-6.5-4.3-9.1-12.2-9.3c-8-0.3-17.3,1.8-27.8,5.6c-0.7,25.8-0.2,44.4,1.4,55.9c6.1-2.4,12.1-4.7,18.1-7.1
		c-1.9-7.4-3.1-13.5-3.6-18.1c4.7,6.3,10.6,12.5,17.6,17.9c2.8-5,5.9-10.2,9.5-15.7c-7.2-3.3-12.1-6.9-14.9-9.7
		C368.2,239.6,372.2,232.6,372,226.1z M346,241c-0.3-4.1-0.5-6.2-0.8-10.3c7.3-2.2,11.2-2.1,11.7,1.4
		C357.4,235.5,353.8,238.9,346,241z"/>
	<path d="M289.7,217.4c-14.7-1.1-27.2-1.9-37.7-1.5c1.3,7.3,1.9,10.9,3.2,18.2c3.9,0.8,5.9,1.2,9.8,2c0.6,6.8,0.8,14,0.5,21.6
		c2-2.4,4.5-4.3,7.5-5.6c2-0.8,4.1-1.4,6.2-1.7c-0.2-3.9-0.4-7.9-0.7-12.1c3.5,1,7.8,2,12.8,2.7C291.6,235.7,291,227.9,289.7,217.4z
		"/>
	<path d="M183.6,265.8c0.4-2,0.9-5.9,1.5-11.8c3.8-0.3,5.7-0.4,9.5-0.4c1.3,4.4,2,6.7,3.3,11.1c5.9-3.6,8.9-5.1,14.8-8.1
		c-5.7-13.8-10.6-27.6-14.8-41.6c-6.9-0.3-10.4-0.2-17.3,0.6c-2.9,13.7-6.7,29.3-11.2,47.2c2.9,0.1,4.4,0.3,7.3,0.7
		C179.5,264.4,180.9,264.8,183.6,265.8z M187.9,227.6c1.5,5.1,2.2,7.6,3.7,12.7c-2.2,0-3.3,0.1-5.6,0.2
		C186.8,235.3,187.2,232.7,187.9,227.6z"/>
	<path d="M248.6,247.4c0.3-4.5,0.1-9.7-0.4-15.5c-8.3-1.2-14-1.2-17-0.4c-0.2-1.8-0.2-2.7-0.4-4.5c4.7-1.2,10.6-1,17.5,0.6
		c0.4-3.7,0.4-8.8-0.1-15.2c-10.2-1.9-20.4-1.3-30.6,2.6c-1.2,12.2-0.9,25.9,0.8,40.9c1.8-1.8,4-3.3,6.5-4.4c2.6-1.1,5.4-1.8,8.3-2
		c-0.1-0.9-0.2-1.8-0.3-2.7C237.1,246,242.4,246.2,248.6,247.4z"/>
</g>
<path d="M97.8,55c2.5,3.2,6,5.5,10.6,7c0.8,0.4,1.6,0.8,2.4,1.2c0.8,0.4,2.2,0.7,4.3,0.9c2,0.2,3.7,0,4.9-0.7c1.2-0.7,2-1.4,2.4-2.2
	c0.4-0.8,0.3-1.6-0.1-2.3c-0.4-0.7-1.1-1.1-2.1-1.2c-3.1,0.2-4.6,0.4-7.7,0.7c-4.2-0.6-7.3-2.3-9.3-5.3c-2-3-3.1-5.6-3.2-7.6
	c-0.2-3.4,0.4-6.2,2.1-8.2c1.7-2,3.7-3.4,6.1-4.2c2.4-0.7,4.7-0.8,7-0.2s4.2,1.6,5.6,3c4.6,5.7,8.2,13.1,11,22.1
	c2.8,9.1,4.8,18.3,6.2,27.7c1.4,9.4,2.4,18.2,3,26.4c0.6,8.2,0.7,14.3,0.3,18.5c-5.1,0.9-9.6,2.2-13.7,3.9
	c-7.6,3.1-12.2,6.9-14,10.9c-1.8,4-1.5,7.6,0.6,10.7c1.8,3.1,4.9,5.1,9.2,6.2c4.3,1.1,8.4,0.9,12.3-0.8c5.8-2.5,10.1-6.3,13-11.7
	c2.9-5.4,4.6-10.8,5.2-16.3c12.3-0.1,24.1,0.7,35.4,2.1c7.4,1,15.3,1.9,23.8,3.1c0.9,1.4,2,2.6,3.2,3.6c1.8,1.5,4,2.2,6.5,2.2
	c3.1,0,5.8-1,8.2-3.1c9.6,1.7,18.5,3.4,27,4.9c9.7,1.7,18.5,3.1,26.5,4c8,0.9,15,1,21.1,0.2c6.1-0.8,10.9-3.2,14.6-6.8
	c2.6-2.6,4.4-5.1,5.2-7.5c0.8-2.4,1-4.4,0.7-5.9c-0.3-1.5-1-2.5-2-2.9c-1-0.4-1.8,0.1-2.4,1.6c-2.4,4.9-6.7,8.1-12.5,9.7
	c-5.9,1.6-13,2.1-21.5,1.6c-8.5-0.4-17.8-1.5-28.3-3c-7.3-1-14.9-2.1-22.9-3c0.7-1.2,1.3-2.5,1.8-3.9c1.6-4.2,2.8-8.8,3.4-13.9
	c0.6-5.1,0.7-10.2,0.2-15.2c-0.8-7.8-2.9-14.4-6.1-19.4c-3.2-5-7.4-9.4-12.5-13.1c2.5-0.2,5.4-0.6,8.7-1c3.2-0.4,6.5-1,9.7-1.6
	c3.2-0.6,6.3-1.2,9.2-2c2.8-0.7,5.1-1.4,6.9-2.1c2.9-1.3,3.9-2.5,3-3.6c-0.9-1.1-2.5-1.1-4.8,0c-4.6,2.5-10.3,3.9-17.2,4.5
	c-6.9,0.6-12.7,0.8-17.7,0.7c0-0.4,0-0.9,0.1-1.3c0.1-0.4,0.1-0.9,0.1-1.3c1.1-0.5,1.8-0.8,2.1-0.9c5.6-2.1,10.6-4.8,14.8-8.2
	c4.3-3.4,7.9-7,10.8-10.7c2.9-3.7,5.1-7.4,6.3-11c1.2-3.6,1.7-6.7,1.4-9.1c-1-4.4-2.9-7.7-5.9-10s-6.5-3.7-10.4-4.1
	c-6.6-0.8-12.6-0.4-17.9,1.3c-5.3,1.6-8.9,4.6-10.7,8.8c-0.5,1.4-0.8,2.4-0.9,3.1c-0.1,0.7-0.4,2.2-0.9,4.4c-0.5,2.3-1.1,6-1.8,11.2
	c-0.6,5.2-1.3,13-2,23.6c-3.3-0.4-5.4,0.3-6.3,2.2c-0.9,1.9-0.9,4.1,0.3,5.8c0.6,0.9,1.4,1.5,2.3,2c0.4,0.2,2.9,0.5,3,0.8
	c0,1.8-0.1,4.9-0.2,9.2c-0.1,4.3,0,9,0.2,14c0.1,2.2,0.2,4.3,0.3,6.5c-0.7,1.4-1.3,2.8-2,4.1c-2.3,4.5-4.6,8.2-6.9,11.1
	c-2.3,2.9-4.4,4-6.3,3.2c-2.2-0.7-3.8-3.1-4.8-7.3c-1-4.2-1.5-8.9-1.4-14.2c0.1-5.3,0.6-10.6,1.4-16c0.8-5.3,1.7-9.4,2.6-12.3
	c0.6-1.7-0.2-3-2.3-3.9c-2.1-1-4.6-1.3-7.3-1.1c-2.8,0.2-5.3,1.1-7.5,2.5c-2.2,1.4-3.1,3.6-2.8,6.4c0.1,2.9,0.4,7,0.8,12.4
	c0.4,5.3,1.3,10.7,2.5,16.1c1.2,5.4,2.9,10.2,5,14.4c2.1,4.2,5,6.8,8.7,7.5c5.5,1.1,10.1-0.4,14-4.5c2.5-2.7,4.8-5.7,6.8-9
	c0.2,4.1,0.5,7.4,0.9,9.7c0.5,3,1.1,6.1,1.8,9.1c0.3,1.1,0.6,2.2,0.9,3.3c-6.5-0.6-13.1-1.1-19.8-1.5c-12.3-0.7-24.3-1-36-1
	c0.6-6.4,0.7-14.3,0.4-23.6c-0.3-9.3-0.9-18.7-2.1-28c-1.1-9.3-2.6-18-4.5-26c-1.9-8-4.2-14.1-7-18.1c-3.4-4.9-7.6-8.1-12.6-9.2
	c-5-1.1-10.7-0.9-16.8,0.8c-1.6,0.5-3.4,1.2-5.4,2.1c-2,0.8-4,2.2-6,4c-2,1.8-3.6,4-4.9,6.7c-1.3,2.6-1.7,5.9-1.1,9.7
	C93.9,49.3,95.3,51.9,97.8,55z M140.4,141.1c-1.3,7.4-6.1,14.4-13.8,16.2c-2.8,0.6-5.1-0.3-7.1-2.9c-3.4-4.3,1.4-10.2,4.8-12.7
	c4.5-3.3,10.6-6,16.2-5.8C140.7,137.6,140.7,139.2,140.4,141.1z M227.3,34.4c2.4-7.6,4.5-13.1,6.2-16.5c1.8-2.5,3.6-4.1,5.6-4.8
	c1.9-0.6,3.7-0.6,5.4,0.1c1.6,0.7,3,2,4,3.7c1,1.7,1.4,3.6,1.1,5.6c-0.6,2.9-1.4,5.9-2.6,9.2c-1.1,3.2-2.8,6.4-5,9.4
	c-2.2,3.1-4.9,6-8.3,8.7c-3.4,2.8-7.4,5.1-11.9,7.1C223.1,49.5,225,42,227.3,34.4z M218.6,97.1c0.1-4.9,0.3-9.6,0.5-14
	c0.2-3.7,0.1-7.3,0.3-11c4.8,3,7.9,7.5,10.5,12.5c3,5.8,5,11.7,5.9,17.6c0.6,5.5,0.6,10.4,0.1,14.9c-0.6,4.4-1.5,8.3-2.8,11.5
	c-0.8,1.9-1.7,3.5-2.6,4.9c-1.4-0.2-2.9-0.3-4.4-0.5c-2-0.2-3.9-0.5-5.9-0.7c-0.4-2-0.7-4.3-1-7.1c-0.4-3.9-0.6-8.4-0.7-13.4
	C218.5,107,218.5,102,218.6,97.1z"/>
<path d="M172.7,52.5c0.8,1.6,1.7,3.1,2.8,4.3c1,1.2,2.3,1.8,3.8,1.8c1.8,0.1,3.3-1.5,4.5-4.8c1.2-3.3,3.5-7.8,6.9-13.5
	c0.7-1.2,0.3-2.2-1.4-2.9c-1.7-0.7-3.8-1-6.3-0.9c-2.5,0.1-5,0.7-7.5,1.8c-2.5,1.1-4,2.6-4.5,4.5c-0.4,1.2-0.4,2.7,0,4.6
	C171.3,49.1,171.9,50.9,172.7,52.5z"/>
<path d="M252.1,74.3c-2.8,4.8-4.2,10.1-4.3,15.8c0.1,2.2,0.3,4.7,0.6,7.6c0.3,2.9,1.3,5.6,2.7,8.2c1.5,2.6,3.7,4.9,6.5,6.9
	c2.9,2,6.5,3.6,11.4,4c6.6,0.6,13-0.3,18.4-2c5.4-1.6,10.4-4,14.9-7.1c4.5-3.1,8.6-6.7,12.3-10.8c3.6-4.1,6.7-8.3,9.1-12.5
	c0.8-1.2,0.5-2.3-0.9-3.3c-1.4-1-2.5-0.7-3.4,0.9c-2.7,4.7-6.1,9.1-9.9,13.2c-3.8,4.1-7.8,7.6-12.1,10.5c-4.2,2.9-8.5,4.9-12.9,6.1
	c-4.4,1.2-8.4,1.4-12.2,0.6c-5-1.3-8.4-4.1-10.3-8.5c-1.9-4.4-2.1-9.6-0.5-15.5c-0.1,0.5,4.4,2.3,4.9,2.5c1.7,0.6,3.6,1,5.4,1.2
	c6.5,0.7,13.3-0.3,19.1-3.6c5-2.9,8.8-6.2,11.2-10.1c2.4-3.9,3.2-7.9,2.3-12c-1-4.1-4.4-7.2-10.5-9.1c-5.2-1.8-10.6-2.2-16.2-1.1
	c-5.6,1.1-10.7,3.2-15,6.3C258.6,65.5,255,69.5,252.1,74.3z M263.8,83.2c0.5-2.2,1.5-4.3,2.7-6.2c1.7-2.7,3.9-5.2,6.5-7.4
	c2.6-2.2,5.6-4,9-5.2c3.4-1.2,6.8-1.4,10.2-0.8c4,0.8,6,3,6.1,6.5c0.1,3.6-1.4,6.9-4.4,10.2c-3,3.3-7.1,5.5-12.5,7
	c-4.3,1.2-8.9,0.6-13.2-0.6c-1.4-0.4-2.9-0.9-4.1-1.8c-0.4-0.3-0.5-0.4-0.6-0.6C263.5,84,263.6,83.7,263.8,83.2z"/>
<path d="M178,186.1c1.9-2.4,2.6-5.2,1.8-7.7c-0.9-3.1-3.5-5.6-6.5-6.5c-0.7-0.2-1.5-0.3-2.3-0.4c0.1-0.1,0.3-0.2,0.4-0.3
	c4.4-2.9,6.7-5.9,7-9.1c0.2-2.2-0.3-4.1-1.6-5.5c-2.3-2.5-6.3-2.9-8.4-2.9c-1.1,0-2.2,0.1-3.3,0.3c-1.5,0.3-2.9,0.6-4.3,1.1
	c-0.4,0.2-0.9,0.3-1.4,0.5c0-0.4-0.2-0.7-0.3-0.8c-0.2-0.2-0.6-0.4-0.9-0.4c-1,0-2.2,0.9-2.2,2.2c-0.1,1.9,0.3,3.6,1.3,5
	c0.3,0.4,0.6,0.6,1.1,0.6c0.7,0,1.5-0.6,1.9-1.3c0.3-0.6,0.3-1.2,0-1.7c0-0.1-0.1-0.1-0.1-0.2c0,0,0,0,0,0l0,0l0.2,0
	c0,0,0.8-0.3,0.9-0.3c-0.7,11-1,21.9-1.2,32.5c-0.4,0.1-0.7,0.1-1.1,0.2c0-0.1,0-0.1,0-0.1c0-0.8-0.5-1.4-1.3-1.4
	c-0.5,0-1.1,0.3-1.5,0.7c-0.4,0.4-0.6,0.9-0.6,1.5c0,1.8,0.2,3.2,0.7,4.3c0.3,0.5,0.7,0.9,1.3,0.9c0.3,0,0.6-0.1,0.9-0.3
	c0.6-0.4,1.3-1.3,1.2-2.1c3.9-0.7,7.2-1.6,10.2-2.9C173.6,190,176.2,188.2,178,186.1z M164.7,157.5c1.4-0.3,2.6-0.4,3.8-0.4
	c1.1,0,2,0.1,2.9,0.3c1.3,0.3,3.5,1.3,3.6,3.7c0.2,3-2.6,5.4-4.7,6.9c-1.8,1.3-3.8,2.5-6.3,3.7C164.2,167,164.4,162.3,164.7,157.5z
	 M163.5,190.2c0.1-4.8,0.2-9.7,0.3-14.6c1.7-0.5,3.4-0.7,5-0.7c0.6,0,1.1,0,1.7,0.1c2.6,0.3,4.5,1.5,5.6,3.7
	c0.6,1.1,0.7,2.2,0.3,3.3c-1.1,3.1-5.5,5.4-6.8,6C167.7,188.9,165.7,189.7,163.5,190.2z"/>
<path d="M203,157.4c0.3,0.4,0.8,0.6,1.3,0.6c0.9,0,1.6-0.6,1.7-1.6l0.2-5c0-0.5-0.1-0.9-0.5-1.3c-0.3-0.4-0.8-0.6-1.3-0.6
	c-0.9,0-1.6,0.6-1.7,1.6l0,0.1c-3.3-0.2-6.7-0.4-10.3-0.4c-2,0-4,0-6,0.1c-0.9,0-1.6,0.7-1.7,1.5c0,0.2-0.1,0.3-0.1,0.5l-0.7,36.1
	c0,0.4,0.1,0.7,0.3,0.9c0.3,0.5,0.8,0.8,1.4,0.8l1.8,0c5.2,0.1,10.6,0.2,15.9,0.5v0c0,0.5,0.2,0.9,0.5,1.3c0.3,0.4,0.8,0.6,1.4,0.6
	c0.9,0,1.6-0.7,1.6-1.6l0.1-3.8c0-0.5-0.2-0.9-0.5-1.3c-0.3-0.4-0.8-0.6-1.4-0.6c-0.9,0-1.6,0.7-1.6,1.6l0,0.3
	c-5.3-0.3-10.7-0.4-16-0.5l0.3-15.5c1.6-0.1,3.2-0.1,4.8-0.1c3.4,0,6.9,0.2,10.4,0.5c0,0.8,0.5,1.4,1.2,1.7c0.2,0.1,0.4,0.1,0.6,0.1
	c0.8,0,1.5-0.5,1.6-1.2c0.3-1.3,0.4-2.6,0.3-3.8c0-1.1-1-1.8-1.9-1.8c-0.5,0-0.9,0.2-1.2,0.5c-0.3,0.3-0.4,0.7-0.4,1.1
	c-3.6-0.4-7.2-0.5-10.6-0.5c-1.6,0-3.2,0-4.7,0.1l0.3-14c1.4,0,2.9-0.1,4.3-0.1c3.5,0,6.9,0.1,10.2,0.4l-0.1,1.4
	C202.5,156.6,202.7,157.1,203,157.4z"/>
<path d="M218.3,193.3c1.7,1.3,3.6,2,5.7,2c2.7,0,5.4-1.2,7.3-3.3c1.9-2,3.1-4.6,3.5-7.5c0.2-1.4,0.1-2.9-0.2-4.3
	c0-0.1-0.1-0.3-0.1-0.4l1.3,0.2c1.3,0.2,2.5,0.5,3.8,0.7l-0.2,12.9c0,0-0.1,0-0.1-0.1c-0.3-0.1-0.6-0.2-0.8-0.2
	c-0.7,0-1.2,0.5-1.4,1.2c-0.2,0.7,0.1,1.7,1,2.2c1.6,0.8,3.2,1.2,4.8,1.2c0.2,0,0.5,0,0.7,0c0.8-0.1,1.4-0.7,1.4-1.6
	c0-0.9-0.8-1.9-2-1.9c0,0-0.1,0-0.1,0l0.2-14.8c0-0.9-0.7-1.8-1.6-2c-1.8-0.4-3.7-0.7-5.5-1c-1.6-0.3-3.1-0.6-4.7-0.9
	c-0.1,0-0.2,0-0.3,0c-0.7,0-1.3,0.5-1.5,1.3c-0.1,0.7,0.2,1.7,1.2,2c0.4,0.2,0.7,1.6,0.7,2.1l0,0.2c0.1,0.9,0.1,1.9,0,2.8
	c-0.3,1.8-1.1,3.5-2.3,4.9c-1.4,1.7-3.4,2.8-5.3,2.8c-1.2,0-2.2-0.4-3.3-1.1c-4.5-3.2-5.4-9.5-5.7-14.7c-0.4-5.9,0.6-10.8,2.9-14.5
	c1.6-2.6,3.3-4,5.1-4.4c0.9-0.2,2-0.3,3-0.3c1.2,0,2.4,0.2,3.5,0.4c0,0,0,0.1,0,0.1c-0.2,0.9,0.3,1.8,1.1,2.2
	c0.2,0.1,0.5,0.2,0.8,0.2c0.8,0,1.4-0.5,1.5-1.1c0.3-1.5,0.4-2.9,0.3-4.3c-0.1-1.2-1.1-1.9-2.1-1.9c-0.4,0-0.8,0.2-1.1,0.4
	c-0.2,0.2-0.4,0.5-0.4,1c-1.4-0.3-2.8-0.5-4.2-0.5c-0.9,0-1.8,0.1-2.6,0.2c-2.7,0.4-4.8,1.7-6.8,4.3c-3.3,4.1-4.9,10.3-4.6,17.3
	C211.5,180.8,212.5,188.8,218.3,193.3z"/>
<path d="M253.8,195.7c-0.4-0.4-0.9-0.6-1.4-0.6c-0.9,0-1.5,0.6-1.5,1.5c0,1.2,0,2.5,0.3,3.8c0.1,0.9,1.1,1.6,2,1.6c0,0,0,0,0,0
	c0.4,0,0.8-0.2,1-0.5c0.2-0.2,0.3-0.5,0.3-0.8c3.6,0.8,7.4,1.5,11.2,2c0.1,0.3,0.2,0.6,0.5,0.8c0.4,0.4,0.9,0.6,1.5,0.6
	c0.7,0,1.2-0.4,1.4-1.1c0.3-1.2,0.4-2.3,0.4-3.5c0-1-0.7-1.8-1.6-1.9l-0.3,0c-0.4,0-0.9,0.2-1.2,0.5c-0.3,0.3-0.4,0.7-0.4,1.1
	c-1.5-0.2-2.9-0.5-4.4-0.7c0.3-6,0.4-12.1,0.5-18c0.1-5.4,0.2-10.9,0.5-16.3c1.7,0.3,3.3,0.6,5,0.8c0,0.4,0.2,0.8,0.5,1.1
	c0.4,0.4,0.9,0.6,1.4,0.6h0c0.9,0,1.5-0.6,1.6-1.5c0.1-1.3-0.1-2.6-0.5-3.9c-0.3-0.9-1-1.4-1.8-1.4l-0.2,0c-0.5,0.1-0.9,0.3-1.2,0.8
	c-0.2,0.2-0.2,0.5-0.2,0.8c-1.8-0.2-3.6-0.6-5.4-0.9c-2.7-0.5-5.5-1-8.3-1.2c0-0.5-0.1-1-0.4-1.4c-0.4-0.5-1-0.8-1.6-0.8
	c-0.7,0-1.2,0.4-1.3,1.1c-0.3,1.5-0.4,3.1-0.1,4.7c0.2,1.1,1.1,1.5,1.8,1.5c0.5,0,1-0.2,1.3-0.6c0.3-0.3,0.4-0.7,0.3-1.2
	c1.8,0.1,3.7,0.4,5.8,0.7c-0.2,5.5-0.3,11.1-0.5,16.5c-0.1,5.8-0.3,11.9-0.5,17.8c-1.2-0.2-2.5-0.5-3.7-0.8v0
	C254.3,196.5,254.1,196,253.8,195.7z"/>
<path d="M295.8,204.6c0.3,0.6,0.8,0.9,1.4,0.9c0.9,0,1.8-0.7,1.9-1.7c0.4-10.3,0.6-20.8,0.8-30.9l0.1-5.2c0.2,0,0.8,0,0.8,0
	c0.9,0,1.6-0.7,1.6-1.6c0-0.9-0.5-1.8-1.6-1.9c-0.9-0.1-1.7-0.1-2.6-0.1c-0.8,0-1.6,0-2.4,0.1l-0.4,0c-1.1,0.1-1.7,1.1-1.7,1.9
	c0,0.9,0.7,1.5,1.7,1.5c0,0,0,0,0,0c0.4,0,0.8-0.1,1.2-0.1l-0.1,4.8c-0.2,7.9-0.4,16.1-0.6,24.2c-1.1-2.2-2.1-4.5-3.2-6.7
	c-3.2-6.7-6.5-13.8-9.9-21.2l-2.3-4.9c-0.3-0.6-0.9-1-1.6-1c-0.8,0-1.7,0.6-1.7,1.6c-0.4,11.6-0.7,24-0.6,36.3
	c-0.2,0-0.3-0.1-0.5-0.1l-0.2,0c-0.8,0-1.5,0.6-1.5,1.5c-0.1,0.9,0.5,1.8,1.6,2c0.3,0,0.6,0.1,0.9,0.1c0.8,0.1,1.7,0.3,2.5,0.3
	c0.9,0,1.7-0.2,2.3-0.5c0.7-0.4,1-1.1,0.8-1.9c-0.2-0.8-0.9-1.4-1.7-1.4c-0.2,0-0.5,0.1-0.7,0.2c-0.1-10.3,0.1-20.6,0.4-28.9
	c1.1,2.3,2.1,4.6,3.2,6.9c3.5,7.5,6.8,14.4,10,21C294.3,201.4,295,203,295.8,204.6z"/>
<path d="M324.2,167.5c-0.1,0.5,0,1.1,0.2,1.4c0.2,0.3,0.6,0.5,1.1,0.5c0,0,0,0,0,0c2.3-0.3,4.2-1.8,6-3.5c0.8-0.8,0.9-1.6,0.7-2.2
	c-0.2-0.5-0.7-0.9-1.3-0.9c-0.3,0-0.8,0.1-1.4,0.6l-0.1,0.1c-1.3-2.1-3.8-3.5-7-4c-0.5-0.1-1.1-0.1-1.7-0.1c-2.2,0-4.6,0.6-6.6,1.8
	c-5.5,3.1-8.2,9.2-6.3,14.3c1,2.7,3,4.5,5,6c2,1.6,4.2,3.1,6.2,4.4c0.4,0.3,0.8,0.5,1.2,0.8c1,0.6,2.1,1.3,2.8,2.1
	c1.3,1.5,1.8,3.9,1.2,6.1c-1,3.6-4.1,4.5-5.8,4.7c-0.4,0.1-0.8,0.1-1.2,0.1c-1.5,0-2.7-0.5-3.5-1.4c-1-1.1-1.6-2.7-1.9-4.7
	c0.2-0.1,0.4-0.1,0.6-0.2c1-0.3,1.4-1.2,1.3-1.9c-0.1-0.8-0.8-1.5-1.6-1.5c-0.2,0-0.4,0-0.5,0.1c-1.7,0.5-3.4,1.3-4.9,2.3
	c-0.7,0.5-1,1.3-0.8,2c0.2,0.7,0.8,1.2,1.5,1.2c0.3,0,0.7-0.1,1-0.3c0,0,0.1-0.1,0.1-0.1c0.7,3.8,2.4,6.3,4.9,7.4
	c1,0.4,2.2,0.7,3.5,0.7c2.3,0,4.6-0.7,6.4-1.9c2.4-1.7,4-4.3,4.5-7.3c0.4-2.8-0.3-5.7-1.7-7.5c-0.9-1.1-2.1-1.9-3.3-2.6
	c-0.3-0.2-0.6-0.4-0.9-0.6c-1.9-1.2-4.1-2.7-6.3-4.3c-1.9-1.4-3.8-2.8-4.5-5c-0.7-2.1-0.4-4.6,1.1-6.7c1.5-2.2,4.1-3.9,6.7-4.3
	c0.4-0.1,0.9-0.1,1.3-0.1c2.6,0,4.9,1.1,6,2.7c-0.1,0-0.1,0-0.2,0C325.2,166.1,324.5,166.7,324.2,167.5z"/>
<path d="M87.8,170c1.2,0.5,1.8-1.2,1.1-2c-6.5-7.6-12.1-14.2-14.9-24c-3.4-11.9,0.5-22.8,5.5-33.5C87,94.3,93.9,71,80.1,56
	c-1.4-1.5-4.3,0.1-3.5,2.1c4.7,12.1,6,22.9,2.6,35.6c-3,11.5-9.8,21.6-11.8,33.4C64.8,142.7,72.2,163.7,87.8,170z"/>
<path d="M98.4,141.8c-7.1-12.4-4.8-24.2,3.5-34.9c4.5-5.8,9.9-14.7,3-20.9c-1-0.9-2.8-0.1-3,1c-1,7.4-2,12.2-6.5,18.7
	c-2.7,3.9-4.6,7.8-5.7,12.3c-2.2,8.9,0.9,17.5,7.1,24.6C97.4,143.3,98.8,142.7,98.4,141.8z"/>
<path d="M61.3,164.7c0.9,0.3,1.8-0.9,1.1-1.6c-5-4.6-7.8-10.5-9-17.1c-1.6-8.4,2.4-16.6,1.2-24.8c-0.2-1.4-2.1-1.6-2.8-0.5
	C43,133.5,45.5,158.6,61.3,164.7z"/>
<path d="M414.1,235.3c-6.6,1.7-11.8,8.4-14.8,14.1c-3.4,6.3-5.1,13.9-4.8,21.1c0.6,13.7,19.8,13.7,27.7,6.9
	c9.7-8.3,15.8-27.1,7.6-38.2C426.1,234.4,419.5,233.9,414.1,235.3z M403.4,273.2c-1-1.4-1.2-3.2-1.3-4.9c-0.2-5.4,0.9-11.6,3.4-17
	c1.8-3.8,4.3-7.2,7.6-9.5c-1.1,2.7-1.3,5.8-1.1,9.2c0.3,4.7,1,9.3,0.9,14C412.9,268.7,407.7,279.1,403.4,273.2z M428.9,254.4
	c-0.5,4.2-1.6,8.5-3.5,12.3c-2,4.2-5.2,7.2-9.2,9.4c-0.3,0.2-4,1.2-3.9,1c2.6-4.1,5.7-9.4,5.7-14.3c0.1-5.2-1.2-10.6,0.1-15.8
	c0.5-2.1,1.9-4.6,4-5.5C429.3,238.6,429.4,250.7,428.9,254.4z"/>
<path d="M322.6,42.6c11.8-4.9,23.5-20.8,19.1-33.9c-1.9-5.8-8.1-8.3-13.7-8.7c-6.8-0.4-13.8,4.3-18.5,8.8c-5.2,5-9.2,11.7-11.1,18.6
	C294.7,40.6,313,46.6,322.6,42.6z M336.7,9c2.2,2.5,2,6.9,1.1,9.9c-1.7,5.3-4.9,10.6-8.7,14.6c-3.8,4-7.8,5-13,5.6
	c3.3-2.3,5.5-6,6.7-9.8c1.5-4.6,1.4-9.6,2.8-14.2C326.9,10.8,332,3.6,336.7,9z M314,11.8c2.4-2.2,5.2-3.8,8.1-4.8c1-0.3,2-0.7,3-1
	c-1.9,2.3-3,5.2-3.9,8.4c-1.2,4.6-1.9,9.1-3.5,13.6c-1.9,5.4-10.1,9.6-11.1,1.3C305.9,22.7,309.1,16.2,314,11.8z"/>
<path d="M14.7,364.1c-6.1-0.4-10.7,4.4-13.1,9.4c-2.9,6.1-1.2,14.4,1.2,20.4c2.6,6.7,7.4,12.9,13.1,17.3
	c10.9,8.4,23.2-6.3,23.1-16.7C38.9,381.7,28.5,365,14.7,364.1z M26.1,404.6c-1.2,1.9-3.7,1.8-5.7,1.2c-5-1.5-8.4-6.5-10.8-10.9
	c-0.7-1.3-1.4-2.7-2-4.2c-1.2-3-2.2-6.2-2.2-9.2c0-2.2,0.4-3.1,1.8-1.2c1.5,1.9,3.2,3.4,5.1,4.8c3.8,2.8,7.7,5.2,11.3,8.3
	C27,396.5,28.7,400.6,26.1,404.6z M32.6,385.2c1.8,4.8,2.8,9.2,0.9,14.4c0.2-1.2-1.4-4.6-2-5.7c-1.1-1.9-2.6-3.5-4.3-4.8
	c-3.3-2.7-7.2-4.6-10.8-7c-4.2-2.9-10.2-8.3-3.9-12.5c6.2-4.1,12.6,3.3,15.8,7.9C30.1,379.9,31.6,382.5,32.6,385.2z"/>
<path d="M454.7,78.4c-0.6-2.4-1.8-7-4-8c-0.9-0.4-2.4-0.6-4.1-0.6c-0.3,0-1.8-6.3-1.9-6.9c-0.8-3-1.3-6.3-4.4-7.8
	c-4.8-2.3-9.9-4-15-5.5c-9.9-2.9-20.3-4.8-30.5-6.2c-6.7-1-13.5-1.5-20.2-1.6c-5.5-0.1-12.1-1.1-15.8,3.9c-2.3,3.2-4.8,6.3-6.5,9.9
	c-3.9-1.4-5.8-1.9-8.9,2.5c-2,2.9-5.2,7.5-4.2,11.2c1.2,4.1,5.9,5.1,9.3,6.6c-0.1,1.1,0.1,2.4,0.1,3.5c-0.1,3.1-0.2,6.2-0.3,9.3
	c-0.1,4.5-0.2,9.1-0.3,13.6c-0.2-0.1-0.4-0.2-0.6-0.2c-1-0.3-2.3-0.3-3.1,0.5c-0.9,0.8-1,2.1-1,3.3c-0.3,13.5-0.7,26.9-1,40.4
	c0,1.7-0.1,3.5,0.6,5c0.7,1.5,1.7,2,3.1,2.7c0.1,0.1,0.4,0.2,0.7,0.3c0,6.3,0.1,12.7,0.3,19c0.2,6.9-0.1,15.6,4.8,19.1
	c2.3,2.5,6,3.9,8.4,5.2c6.9,3.6,14.5,5.5,22.1,6.4c8.8,1.1,18.7,1.6,27.5-2c4.4-1.8,6.6-4.9,8.5-9.3c0.5-1.1,1-2.4,1.5-3.7
	c2.5-6.8,3.9-14.3,5.9-21.2c0-0.1,0.1-0.2,0.1-0.3c0.8-0.2,1.5-0.5,2.2-0.9c1.8-1.3,2.5-3.5,3.1-5.6c0.1-0.4,0.2-0.8,0.4-1.2
	c2-6.7,3.8-13.5,5.6-20.2c0.9-3.5,1.9-7,2.8-10.4c0.7-2.7,2.2-6.2,1.9-9.1c-0.2-1.7-1.1-2.5-2.4-2.9c2.1-8.3,4.1-16.7,6.1-25.1
	c3.6-0.3,7.5-1.2,9.4-3.8C457.1,84.9,455.4,81.5,454.7,78.4z M370.8,47.6c2.5-1,6-0.6,8.6-0.6c8.6-0.1,17.6,1.8,26.1,3.2
	c9.3,1.6,18.5,3.7,27.6,6.2c1.4,0.4,5.3,2.3,2.7,3.6c-1.6,0.8-3.8,0.6-5.5,0.7c-4.5,0.4-8.9-0.1-13.4-0.4c-4.6-0.2-9.1-0.5-13.7-1
	c-9.1-0.9-18.1-2.6-26.7-5.9c-1.8-0.7-4.6-1.4-6-2.6C369.1,49.8,369.2,48.2,370.8,47.6z M368.6,57.7c0.8-2,3.8-0.5,5.6,0.1
	c2.9,1,5.8,1.8,8.8,2.5c9,2.2,18.2,3.4,27.4,4c4.6,0.3,9.3,0.4,14,0.4c4.2,0,8.3-0.2,12.4-0.7c1.2-0.2,2.5-0.3,3.7,0.1
	c1.7,0.7,2.5,3.3,1.8,5c-0.8,2-4.1,1.5-5.9,1.5c-8.9,0.1-17.8,0.2-26.7-0.4C398.3,69.4,387,67,376,63.7c-2.7-0.8-7.7-1.1-7.6-4.9
	C368.4,58.4,368.5,58,368.6,57.7z M419.3,175c-2.7,9.7-7.2,20.6-16.9,22.7c-5.7,1.2-11.4,1.4-17.1,1.1c-5.7-0.3-11.2-1.7-16.6-3.4
	c-8.4-2.7-12.3-10.1-12.1-18.5c0-1.8,0.4-14.2,0.9-18.8c8.1,2.7,15.1,4.1,23,5.4c8.4,1.4,16,2.5,24.5,3.4c5.5,0,10.9,0.6,16.4,0.2
	C420.7,169.5,420,172.2,419.3,175z M374.2,126.8c5-6.7,15.3-3.7,16.6,4.1c2.9-6.4,13.9-7.8,16.3-0.8c1.9,5.5-1.9,11-5.7,15.1
	c-2,2.2-4.3,4.2-6.6,6c-1.6,1.3-4.4,4.5-6.6,4.2c-1.5-0.1-3-2.1-4-3.1c-1.4-1.3-2.6-2.8-3.7-4.3c-2.3-3.1-4.3-6.4-6.2-9.7
	C372.4,134.9,371.7,130.2,374.2,126.8z M438.3,100.7c-0.8,3.3-1.3,6.3-2.1,9.6c-0.6,2.1-1.1,4.3-1.7,6.4c-0.9,0.1-1.8,0.2-2.6,0.2
	c-14.1,0.1-27.8-0.9-41.7-3.6c-5-1-10-2.1-15-3.3c-4.4-1.1-9.1-1.9-13.4-3.4c-2.6-0.9-2.9-1-2.8-3.7c0-1.6,0-3.2,0-4.9
	c0.1-3.9,0.2-6.8,0.7-11.4c12.1,2.9,24.1,4.7,36.5,5.7c14.8,1.2,29.3,0.4,44.1-0.2C439.5,94.6,439,98,438.3,100.7z M448.6,85.7
	c-4.3,1.9-9.7,2.1-14.3,2.1c-7.6,0-15.3-0.4-22.8-1.1c-8.9-0.9-17.8-2.3-26.6-4.2c-7.8-1.7-16-3.4-23.4-6.6
	c-2.1-0.9-3.9-1.5-5.1-3.7c-0.2-0.5-0.4-1-0.5-1.5c-0.6-2.9,0.5-6.9,3.8-7.2c2.1-0.2,5.2,1.5,7.2,2.1c10.2,3.2,20.4,5.7,31,7.1
	c8.6,1.1,17.3,1.8,26,2.1c4.3,0.1,8.6,0.1,12.9,0c3.3-0.1,8.7-1.4,11.2,1.5C449.9,78.4,452.3,84,448.6,85.7z"/>
<g>
	<path d="M178.1,384.4c2.6-2.2,4.7-5.2,6.6-8c1-1.5,2.8-5.4,4.7-6c0.9-0.2,6.8,1,10.8-2.2c0.7-0.5,1.4-1.2,2.1-1.9
		c-0.2,1.8-0.3,3.7-0.5,5.5c-0.5,5.6-0.8,10-0.8,13.1c0,3.6,0.1,7.2,0.4,10.8c0.3,3.6,0.8,6.9,1.7,10c0.9,3,2.3,5.5,4.1,7.4
		c1.8,1.9,4.2,2.8,7,2.9c3.8,0.1,7.5-1.3,10.7-4.4c3.2-3.1,5.9-7.2,8-12.1c2.1-5,3.6-10.5,4.5-16.5c0.9-6,1.3-12.1,1-18
		c-0.5-9.2-2.1-16.9-4.9-22.7c-2.7-5.9-10.9-15-10.7-15.6c0,0,5-0.5,8-1.1c3-0.5,6-1.2,8.9-1.9c3-0.8,5.8-1.6,8.4-2.6
		c1.2-0.5,2.3-0.9,3.4-1.4c1.1,2.3,3.2,3.7,3.6,3.7c0.5,0,0.8,0.1,0.7,0.3c-0.1,1.9-0.7,5.4-1.3,10.2c-0.6,4.8-1.2,10-1.6,15.5
		c-0.5,5.5-1,11-1.5,16.3c-0.5,5.3-0.7,9.4-0.7,12.3c0,3.4,0.1,6.8,0.4,10.2c0.2,3.4,0.8,6.5,1.7,9.4c0.9,2.9,2.1,5.2,3.8,7
		c1.7,1.8,4,2.7,6.6,2.8c3.6,0.1,7-1.2,10.1-4.1c3.1-2.9,5.6-6.7,7.5-11.4c2-4.7,3.4-9.8,4.2-15.5c0.9-5.7,1.2-11.4,0.9-16.9
		c-0.4-8.7-2-15.9-4.6-21.5c-2.6-5.5-10.3-14.3-10.1-14.8c0,0,4.7-0.5,7.5-0.9c2.8-0.5,5.6-1,8.4-1.7c2.8-0.7,5.4-1.5,7.9-2.4
		c2.4-0.9,4.5-1.8,5.9-2.6c2.4-1.5,3.3-3,2.6-4.2c-0.7-1.2-2.1-1.1-4,0.3c-3.9,2.8-8.8,4.8-14.7,5.5c-5.9,0.7-14.1,1.4-15,0.4
		c-0.1-0.1,0.1-1,0.2-1.5c0.1-0.5,0.1-1.3,0.2-1.5c0.3-0.5,1.6-0.8,1.8-0.9c4.3-1.1,9.2-5.1,12.8-8.9c3.7-3.8,6.7-7.8,9.2-12
		c2.4-4.2,4.2-8.4,5.1-12.5c1-4.1,1.4-7.6,1.1-10.2c-0.6-4.7-2.2-8.5-4.4-10.9c-2.2-2.4-4.8-3.9-7.7-4.4c-4.9-0.9-9.4-0.5-13.4,1.2
		c-4,1.7-7,4.8-8.6,9.3c-0.5,1.5-0.8,2.6-0.9,3.4c-0.1,0.7-0.5,2.4-1.1,4.9c-0.6,2.5-1.4,6.6-2.4,12.3c-1,5.7-1.6,24.4-4,26
		c-0.4,0.3-4.5-0.1-5.5,1.9c-0.2,0.3-0.3,0.7-0.4,1.1c-4,2.7-8.8,4.5-14.5,5.3c-6.2,0.8-15,1.6-15.9,0.6c-0.1-0.1,0.1-1,0.2-1.6
		c0.1-0.5,0.1-1.3,0.2-1.6c0.3-0.5,1.7-0.9,1.9-0.9c4.6-1.2,9.7-5.4,13.6-9.5c3.9-4.1,7.1-8.4,9.7-12.9c2.6-4.5,4.4-8.9,5.4-13.3
		c1-4.4,1.5-8,1.2-10.8c-0.6-5-2.3-8.9-4.7-11.5c-2.3-2.5-5.1-4.1-8.2-4.6c-5.2-0.9-9.9-0.4-14.2,1.4c-4.3,1.8-7.5,5.2-9.1,9.9
		c-0.5,1.6-0.8,2.8-1,3.6c-0.1,0.8-0.5,2.5-1.2,5.1c-0.6,2.7-1.5,7-2.5,13c-1,6-1.7,25.9-4.3,27.6c-0.4,0.3-4.8-0.1-5.8,2
		c-1,2.2-1.5,4.8-0.8,6.3c1.2,2.4,3.4,4,3.9,3.9c0.5,0,0.8,0.1,0.8,0.3c-0.1,2-0.7,5.7-1.4,10.8c-0.6,5.1-1.2,10.6-1.7,16.5
		c-0.1,1.3-0.2,2.5-0.3,3.7c-0.4,0.8-0.8,1.5-1.1,2c-1.5,2.2-2.9,3.8-4.2,4.8c-1.3,1-2.5,1.5-3.5,1.6c-1,0.1-2.8,0-2.9-0.1
		c-0.3-0.7,1.4-3.8,1.7-4.6c1-2.8,1.9-5.5,2.6-8.4c1.9-7.9,2.9-16.3,0.6-24.2c-1.1-3.7-3.1-6.9-5.9-9.6c-2.8-2.7-7.1-4.2-12.3-4.1
		c-8.5,0.2-16,4.6-21.5,12.5c-5.5,7.9-9,17.9-9.3,29.1c-0.1,2.8,0.2,6.2,0.7,9.8c0.1,0.5,0.2,1,0.3,1.5c-0.8,1.7-1.7,3.5-2.6,5.2
		c-3.3,6.4-7.3,12.2-11.9,17.5c-4.6,5.3-9.9,9.8-15.8,13.3c-5.9,3.5-12.3,5.2-19.1,5.1c-8.5-0.1-15.2-2.2-19.8-6.4
		c-4.6-4.2-7.9-9.5-9.9-15.7c-2-6.3-2.8-13.4-2.4-21.4c0.4-7.9,1.5-15.9,3.5-23.8c2-7.9,4.3-15.3,7.2-22.3c2.8-7,6.8-16.9,9-17.6
		c2.5-0.9,6.7,1.3,9,2.1c4.2,1.4,8.3,3.1,12.6,4.2c11.5,2.9,25.5,2.6,35.7-4.1c4.4-2.9,7.8-6.3,10.1-10.3c2.3-4,3.5-8.1,3.5-12.4
		c0-4.3-1.2-8.2-3.5-11.8c-2.3-3.6-5.9-6.4-10.6-8.4c-4.8-2-10.7-2.6-17.8-1.9c-14.5,1.4-28.8,9.3-38.9,19.6c-3,3-5.6,6.3-7.9,9.9
		c-2.6,4-4.7,3.3-9.1,2.1c-11.5-3.1-24.9-7-36-0.6c-8.3,4.7-13,14.2-10.9,23.6c1.1,5,3.1,10,6.1,14.5c0.5,0.7,1.3,1.7,2.4,2.9
		c1.1,1.2,2.6,2.1,3.9,2.9c1.9,1.1,3.7,1.3,5.3-0.4c1.6-1.7,1.3-3.4-0.9-4.8c-1.2-0.7-2.6-1.2-4.2-1.4c-1.6-0.2-2.6-0.8-3.1-1.4
		c-2-2.6-3.9-6.3-5.1-10.8c-1.2-4.5-0.5-9.1,2.2-13.8c6.1-10.5,19.7-9.9,30.1-8.1c3.2,0.6,5.7,1.1,8.8,2.2c0.8,0.3,1.7,0.6,2.3,1.3
		c2,2.1-2.7,8.9-3.7,10.7c-2.8,4.9-4.7,9.5-6.6,15c-4.9,14.2-7,29.3-6.3,44.2c0.3,6.1,1.3,12.1,3.1,17.9c1.8,5.8,4.5,10.9,8.1,15.3
		c3.5,4.4,7.9,8,13,10.7c10.5,5.6,23.3,5.6,34.5,2.1c12.1-3.7,20.3-11.1,28.1-20.6c4.3-5.3,7.8-10.9,10.4-16.9
		c0.1,0.3,0.3,0.7,0.4,1c1.5,3.2,3.4,5.8,5.9,7.8C162.7,390,172.5,389.3,178.1,384.4z M276.9,285.3c2.3-8.4,4.1-14.7,5.7-18.2
		c1.2-2.7,2.9-4.6,4.4-5.3c1.5-0.7,2.8-0.7,4,0.1c1.2,0.8,2.2,2.1,2.9,4c0.7,1.9,1,4,0.7,6.2c-0.4,3.2-1.2,6.6-2.2,10.2
		c-1,3.6-2.4,7.1-4.2,10.6c-1.8,3.4-4.2,6.7-7.2,9.7c-2.9,3-9.9,7.8-10.3,7.6C270.9,310.1,274.6,293.6,276.9,285.3z M261.9,386
		c0.1-4.4,0.4-9.4,0.9-14.9c0.5-5.5,1-11,1.6-16.5c0.6-5.4,1.2-10.6,1.8-15.5c0.6-4.9,1.3-12.1,1.6-12.2c0,0,5.6,7.7,7.9,14.2
		c2.3,6.5,3.9,13.2,4.2,19.7c0.3,6-0.1,11.6-0.9,16.6c-0.9,5-2.1,9.2-3.7,12.7c-1.6,3.5-3.4,6.3-5.3,8.1c-2,1.9-3.8,2.8-5.5,2.6
		c-1.2-0.1-2-1.5-2.4-4.2C261.9,393.9,261.8,390.4,261.9,386z M228.9,286.5c2.5-8.9,4.3-15.7,6-19.4c1.3-2.9,3.1-4.9,4.7-5.6
		c1.6-0.8,3-0.8,4.3,0c1.3,0.8,2.3,2.2,3.1,4.2c0.8,2,1.1,4.3,0.8,6.5c-0.4,3.3-1.3,7-2.3,10.9c-1,3.8-2.5,7.6-4.5,11.3
		c-1.9,3.7-4.5,7.1-7.6,10.4c-3.1,3.2-10.5,8.4-10.9,8.1C222.4,312.8,226.4,295.3,228.9,286.5z M212.9,393.3c0.1-4.7,0.5-9.9,1-15.8
		c0.5-5.9,1.1-11.7,1.7-17.4c0.6-5.8,1.3-11.3,1.9-16.5c0.6-5.2,1.4-12.9,1.7-13c0,0,5.9,8.1,8.4,15c2.5,6.9,4.1,14,4.5,20.8
		c0.4,6.3-0.1,12.3-1,17.6c-0.9,5.3-2.2,9.8-3.9,13.5c-1.7,3.8-3.6,6.6-5.6,8.6c-2.1,2-4.1,3-5.8,2.8c-1.3-0.1-2.1-1.6-2.5-4.4
		C212.9,401.7,212.8,398,212.9,393.3z M160.3,353c0.9-5.2,2.3-10.1,4.2-14.6c2-4.5,4.5-8.4,7.5-11.4c3-3,6.7-4.5,10.4-4.7
		c2.1-0.1,4.1,0.8,5.7,2.8c1.6,2.1,2.8,4.5,3.7,7.4c0.9,2.9,1.3,5.8,1.5,8.9c0.1,3-0.2,7.1-0.9,7.6c-0.9,0.6-4.9,0.8-6.6,2.6
		c-1.7,1.7-2.9,3.8-3.5,6.2c-0.6,2.4-0.7,4.7-0.4,7c0.4,2.3,2.3,4,2.4,4.4c0.1,0.5-3.4,5.1-5.9,8.2c-2.4,3.1-5.6,4.9-9.5,5.2
		c-2.9,0.2-5.1-1.1-6.6-3.9c-1.5-2.8-2.4-6.5-2.7-11C159.2,363,159.5,358.2,160.3,353z M89.6,296.1c10.7-10.7,25.2-24.8,40.8-27.5
		c6-1,10.9-0.1,14.3,3.2c3.4,3.3,5.2,7.3,5.3,11.9c0.1,4.6-1.5,9.2-4.9,13.6c-3.4,4.4-8.9,7.4-16.1,8.5c-6.9,1-13.9,0.6-20.5-1.6
		c-6.5-2.2-12.9-3.3-18.9-7.2C89.6,296.7,89.6,296.4,89.6,296.1z"/>
	<path d="M408.5,324.7c-1.3-0.8-2.1-0.2-2.6,1.6c-1.4,5.2-3.8,10.4-6.6,15.3c-2.8,4.9-5.9,9.1-9.3,12.6c-3.5,3.5-7.2,6.1-11.1,7.9
		c-3.9,1.7-7.7,2.4-11.1,1.7c-4.5-0.9-7.8-3.8-9.5-8.3c-1-2.7-1.2-5.8-1.2-8.6c-0.1-2.1-0.2-4.1,0.2-6.2c0-0.2,0.1-0.4,0.1-0.6
		c-0.1,0.5,6,2.2,6.6,2.3c2.1,0.3,4.5,0.2,6.6,0c4.5-0.5,8.9-2.4,12.3-5.4c4-3.6,6.9-7.5,8.5-11.9c1.6-4.4,1.8-8.7,0.7-12.8
		c-1.2-4.1-4.3-6.8-9-8.1c-4.1-1.2-8.4-1.2-12.8,0.4c-4.4,1.5-8.3,4-11.8,7.5c-3.5,3.5-6.4,7.8-8.8,12.8c-2.4,5.1-3.9,10.7-4,16.6
		c0,2.3,0.1,5,0.3,8c0,0.1,0,0.2,0,0.3c-2.3,3.5-4.7,6.7-7.3,9.4c-3.7,3.9-7.6,6.8-11.7,8.7c-4.2,2-8.2,2.8-11.7,2.2
		c-3.4-0.5-6.3-2.3-8.3-5.1c-2.3-3.3-2.9-7.6-3.1-11.5c-0.1-1.5-0.1-2.9-0.1-4.4c0-0.4,0.6-4.5,0.5-4.6c2.3,1.4,5.2,2.9,7.9,3.1
		c3.1,0.2,6.1-0.2,9.1-1c3.7-0.9,7.1-2.8,9.9-5.3c4.3-3.9,7.3-8.2,9-13c1.7-4.7,2-9.3,0.7-13.6c-1.2-4.3-4.5-7-9.5-8.3
		c-4.3-1.1-8.9-0.9-13.6,0.8c-4.6,1.8-8.8,4.5-12.5,8.3c-3.7,3.8-6.8,8.4-9.4,13.9c-2.6,5.4-4.1,11.5-4.2,17.7
		c0,2.4,0.1,5.3,0.4,8.4c0.2,3.2,1,6.2,2.4,9c1.3,2.8,3.4,5.3,6.2,7.3c2.8,2,6.7,2.9,11.5,2.9c6.5,0,12.5-1.2,17.6-3.8
		c5.1-2.6,9.7-6,13.6-10.3c1.4-1.5,2.7-3.1,3.9-4.7c0.3,0.7,0.6,1.4,0.9,2.1c1.3,2.7,3.2,5,5.9,7c2.7,2,6.3,2.9,10.9,3
		c6.2,0.2,11.8-0.8,16.6-3.1c4.8-2.3,9.1-5.4,12.8-9.2c3.7-3.9,6.8-8.2,9.3-13.1c2.5-4.9,4.4-9.8,5.9-14.6
		C410.1,326.6,409.8,325.5,408.5,324.7z M359.6,331.5c0.5-1.5,1.3-3,2-4.4c1.4-2.9,3.1-5.7,5.2-8.2c2.1-2.5,4.4-4.5,7.1-6.1
		c2.6-1.6,5.4-2.1,8.1-1.8c3.2,0.4,5,2.4,5.4,6.1c0.3,3.7-0.6,7.4-2.8,11.1c-2.2,3.7-5.5,6.6-10,8.6c-0.9,0.4-1.8,0.7-2.7,0.9
		c-3.8,0.8-9.8,0.6-12.7-2.4c-0.1-0.1-0.1-0.2-0.2-0.3C358.5,334.1,359.3,332.4,359.6,331.5z M306.2,338c1.2-5.6,4.4-10.9,8-15.4
		c2.2-2.7,4.7-4.9,7.5-6.7c2.8-1.8,5.7-2.4,8.6-2.2c3.4,0.3,5.3,2.4,5.7,6.3c0.4,3.9-0.6,7.9-2.9,11.9c-2.3,4-5.9,7.2-10.6,9.4
		c-2.5,1.2-5.4,1.6-8.2,1.4c-2.4-0.2-5.3-0.7-7.3-2.2c-0.4-0.3-0.7-0.6-0.8-0.8C305.9,339.2,306,338.8,306.2,338z"/>
	<path d="M359.9,386c-21.2,5.2-41,13.7-60.6,21.7c-30.6,12.6-67.6,30.1-103.7,27.1c-11.9-1-21.3-5.2-27.5-13.2
		c-5.2-6.7-7-15.6,1.2-21.3c1-0.7-0.3-1.9-1.4-1.4c-13.3,6-13.6,20.4-7.2,30c5.4,8,15.2,13.8,26.1,17c28.8,8.4,57.6-0.3,83.4-10.7
		c24.1-9.7,48.1-19.6,72.1-29.4c10.7-4.4,20.7-9.2,32.5-11.7c5.2-1.1,10.6-1.8,16-1.4c2.7,0.2,5.3,0.7,7.8,1.5
		c1.3,0.4,6.7,3.6,7.6,3.4c1-0.2,1.9-0.9,1-1.7C394.5,383.8,378.5,381.4,359.9,386z"/>
</g>
<path d="M32.8,235c3.6,2.5,8.2,3.3,12.5,3.9c4.6,0.7,9.2,1.8,13.8,2.6c3.4,0.6,5.5,2.8,8.3,4.5c2.5,1.5,4.8,3.3,7.4,4.5
	c2.8,1.4,5.7,1.5,8.8,1.9c8.2,0.9,16.6,0.6,24.6-1.7c3.5-1,6.9-1.7,10.3-3.3c3.5-1.7,6.7-3.8,9.6-6.4c5.3-4.9,9-11.3,10.8-18.2
	c1.4-5.8,1.7-11.7,1.5-17.6c-0.2-5.6-0.2-11.4-1.5-16.9c-0.4-1.8-1.1-3.5-1.9-4.9c-2.6-4.4-7.2-5.2-11.8-6.2
	c-8.2-1.7-17-1.7-25.4-0.6c-6.5,0.9-13,2.3-19.3,4c-9.9,2.7-35.6,10.8-34.1,24.7c0.1,1.2,0.3,2.4,0.5,3.5c0,0.1,0,0.1-0.1,0.1
	c-6.9-2.7-15.5,0.7-18.7,7.3C24.8,222.6,27,231,32.8,235z M129.2,231c-4,8.5-11.2,12.9-19.9,15.4c-6.2,1.7-12.7,2.6-19.1,2.5
	c-6.6-0.2-12.4-1.2-17.7-5.3c-5.1-3.8-9.2-8.9-12.4-14.3c-1.8-3-3.6-5.9-4.8-9.2c-0.5-1.5-1.2-3.5-0.7-5.1c1.3-4.3,9.9-0.9,12.8-0.5
	c5.9,0.7,11.8,0.9,17.7,0.5c11.8-0.8,23.5-3.7,34.3-8.5c2.3-1,4.6-2.1,6.9-3.2c1.7-0.8,4.8-3.3,5.5-0.7c0.1,0.4,0.2,0.9,0.3,1.5
	C133.6,212.9,133,222.7,129.2,231z M106.4,195.3c-0.3-0.3-1.3-0.4-1.4-0.9c-0.3-1,0.9-1.1,1.5-1.2c0.2,0,0.4-0.1,0.6-0.1
	c2.5-0.2,5.3,0.2,7.8,0.6c2.5,0.5,6.3,2.3,2.8,4.8c-6,4.2-15.4,6.1-22.8,7.6c-7.5,1.5-15,2.5-22.5,0.7c-0.5-0.1-0.4-0.8,0.1-0.8
	c8.5-0.2,16.6-0.3,24.9-2.5c2.7-0.7,6-1.2,8.3-2.8c1.1-0.8,1.8-1.8,1.7-3.1C107.2,196.7,107,195.9,106.4,195.3z M65.6,191.1
	c9.9-5.2,20.8-8.8,31.9-10.5c5.5-0.8,11.2-1.2,16.7-0.8c5.5,0.3,10.3,0.7,15.2,3.6c2.6,1.6,3.6,4.4,2.9,7.4
	c-0.5,1.9-1.7,2.4-3.3,3.5c0-4.8-7.4-5.2-10.8-5.8c-11.7-2-25.1,0.6-36,4.7c-4.8,1.8-9.4,3.9-13.7,6.6c-2.7,1.6-7.4,5.5-7.5,8.9
	c0,0.6-6.7-1.8-7.3-2.4C47.4,200.2,62,193,65.6,191.1z M51.1,222.7c1.1,2.7,2.3,5.3,3.6,7.8c-2.3-0.8-13.4-3-11.4-7.2
	c0.5-0.9,1.4-1.5,2.5-1.7C47.6,221.3,49.5,221.8,51.1,222.7z M33.5,217.4c1.1-1.3,2.6-2.4,4.1-3.1c1.9-0.9,5.1-1.4,7.1-0.7
	c1.1,0.4,4.7,2.1,2.2,3.2c-0.7,0.3-1.5,0.2-2.3,0.1c-2.2-0.1-4.3,1.1-5.5,2.9c-1.2,1.8-1.3,4.3-0.3,6.2c1.9,3.6,6,5.2,9.6,6.5
	c3,1,8.7,1.8,9.2,5.6c-1.7-0.1-3.4-0.4-5.1-0.8c-2.7-0.6-5.3-1.3-8-1.7c-3.8-0.5-7.8-1.6-10.4-4.6c-0.9-1-1.6-2.3-2.2-3.8
	C30.6,223.8,31.2,220.1,33.5,217.4z"/>
<path d="M111.9,219.1c-2.2-3.2-6.7-3.9-9.7-1.2c-1.5,1.4-2.5,3.2-3.4,5.1c-3.4-3.4-9.9-6.2-13.7-1.8c-4.1,4.8,0.6,11.2,4.8,14
	c3.5,2.4,12.1,6.2,12.1,6.2s2.5-2.4,4.5-4.7c3.6-4.2,9-11.4,5.6-17.1C112.1,219.4,112,219.2,111.9,219.1z"/>
</svg>
